<svg width="58" height="57" viewBox="0 0 58 57" fill="none" xmlns="http://www.w3.org/2000/svg">
<path d="M53.6433 28.7816C53.6433 42.384 42.616 53.4236 29.0013 53.4236C15.3867 53.4236 4.35938 42.384 4.35938 28.7816C4.35938 15.1669 15.3867 4.13965 29.0013 4.13965C42.616 4.13965 53.6433 15.1669 53.6433 28.7816Z" fill="white"/>
<path d="M40.5509 22.5462C40.4164 22.6246 37.2154 24.2801 37.2154 27.9507C37.3662 32.1367 41.255 33.6047 41.3217 33.6047C41.255 33.6831 40.7346 35.6045 39.1931 37.6186C37.9697 39.3535 36.6119 41.1027 34.55 41.1027C32.5887 41.1027 31.8847 39.9464 29.6216 39.9464C27.1913 39.9464 26.5036 41.1027 24.6429 41.1027C22.581 41.1027 21.1226 39.2598 19.8326 37.5411C18.1566 35.2917 16.7321 31.7618 16.6818 28.3724C16.6479 26.5764 17.0174 24.8109 17.9555 23.3113C19.2794 21.2178 21.643 19.7966 24.2242 19.7497C26.2019 19.6876 27.962 21.015 29.169 21.015C30.3257 21.015 32.4881 19.7497 34.9348 19.7497C35.9909 19.7508 38.8072 20.0472 40.5509 22.5462ZM29.0017 19.3911C28.6497 17.751 29.6216 16.1108 30.5268 15.0645C31.6835 13.7992 33.5103 12.9404 35.0857 12.9404C35.1863 14.5806 34.5489 16.1892 33.4098 17.3608C32.3876 18.6261 30.6274 19.5786 29.0017 19.3911Z" fill="url(#paint0_linear_291_412)"/>
<defs>
<linearGradient id="paint0_linear_291_412" x1="29.0007" y1="12.9404" x2="29.0007" y2="41.1027" gradientUnits="userSpaceOnUse">
<stop stop-color="#293645"/>
<stop offset="1" stop-color="#0F1011"/>
</linearGradient>
</defs>
</svg>
