<svg width="284" height="82" viewBox="0 0 284 82" fill="none" xmlns="http://www.w3.org/2000/svg">
<path d="M282.418 72.544C282.418 76.9138 278.803 80.4535 274.331 80.4535H9.67584C5.20617 80.4535 1.57812 76.9138 1.57812 72.544V9.46774C1.57812 5.09993 5.20617 1.54785 9.67584 1.54785H274.329C278.803 1.54785 282.416 5.09993 282.416 9.46774L282.418 72.544Z" fill="black"/>
<path d="M273.477 1.64256C278.347 1.64256 282.31 5.50425 282.31 10.25V71.75C282.31 76.4957 278.347 80.3574 273.477 80.3574H10.5184C5.64836 80.3574 1.68557 76.4957 1.68557 71.75V10.25C1.68557 5.50425 5.64836 1.64256 10.5184 1.64256H273.477ZM273.477 0H10.5184C4.73589 0 0 4.61507 0 10.25V71.75C0 77.3849 4.73589 82 10.5184 82H273.477C279.26 82 283.996 77.3849 283.996 71.75V10.25C283.996 4.61507 279.26 0 273.477 0Z" fill="#A6A6A6"/>
<path d="M63.3757 40.5565C63.3147 33.9493 68.9273 30.7349 69.1839 30.5853C66.0053 26.0691 61.0785 25.4521 59.3472 25.4029C55.2093 24.9785 51.1954 27.8157 49.0876 27.8157C46.9376 27.8157 43.6917 25.4439 40.1932 25.5136C35.6914 25.5812 31.4798 28.1212 29.17 32.0654C24.4031 40.1075 27.9583 51.9258 32.5254 58.4263C34.8099 61.61 37.4795 65.1647 40.9737 65.0396C44.3922 64.9023 45.6691 62.9158 49.7944 62.9158C53.8818 62.9158 55.0809 65.0396 58.6446 64.9597C62.3134 64.9023 64.6232 61.7617 66.8278 58.5493C69.4679 54.9003 70.5282 51.3067 70.5703 51.1222C70.484 51.0935 63.4451 48.4756 63.3757 40.5565Z" fill="white"/>
<path d="M56.644 21.1266C58.4826 18.8859 59.7406 15.8376 59.3914 12.7441C56.7302 12.8589 53.4022 14.5379 51.4858 16.7293C49.7902 18.6604 48.2756 21.8256 48.6668 24.8022C51.6562 25.0195 54.7254 23.3324 56.644 21.1266Z" fill="white"/>
<path d="M103.18 20.5183C103.18 22.9312 102.438 24.7475 100.954 25.9672C99.5808 27.0927 97.6286 27.6564 95.0999 27.6564C93.8461 27.6564 92.7733 27.6031 91.875 27.4965V14.313C93.0467 14.1285 94.309 14.0342 95.6721 14.0342C98.0808 14.0342 99.8963 14.5446 101.121 15.5655C102.492 16.7197 103.18 18.3699 103.18 20.5183ZM100.856 20.5778C100.856 19.0136 100.431 17.8144 99.5808 16.978C98.7309 16.1436 97.4897 15.7254 95.8552 15.7254C95.1609 15.7254 94.5698 15.7705 94.0797 15.8648V25.8873C94.351 25.9283 94.8475 25.9467 95.5691 25.9467C97.2562 25.9467 98.5584 25.4896 99.4756 24.5753C100.393 23.661 100.856 22.3285 100.856 20.5778Z" fill="white"/>
<path d="M115.51 22.6264C115.51 24.1127 115.074 25.3304 114.203 26.2857C113.29 27.2676 112.081 27.7576 110.57 27.7576C109.114 27.7576 107.955 27.2881 107.091 26.3451C106.228 25.4042 105.797 24.2172 105.797 22.7863C105.797 21.2898 106.241 20.0619 107.133 19.1086C108.025 18.1554 109.224 17.6777 110.734 17.6777C112.19 17.6777 113.36 18.1472 114.245 19.0881C115.087 20.0024 115.51 21.1832 115.51 22.6264ZM113.223 22.6961C113.223 21.8044 113.025 21.0397 112.632 20.4022C112.169 19.6314 111.51 19.246 110.654 19.246C109.769 19.246 109.095 19.6314 108.633 20.4022C108.237 21.0397 108.041 21.8167 108.041 22.7351C108.041 23.6268 108.239 24.3915 108.633 25.029C109.11 25.7998 109.775 26.1852 110.633 26.1852C111.475 26.1852 112.135 25.7937 112.611 25.0085C113.019 24.3587 113.223 23.5879 113.223 22.6961Z" fill="white"/>
<path d="M132.032 17.873L128.929 27.5367H126.91L125.624 23.3404C125.298 22.2928 125.033 21.2514 124.827 20.2182H124.787C124.596 21.2801 124.331 22.3195 123.99 23.3404L122.625 27.5367H120.582L117.664 17.873H119.93L121.051 22.4671C121.322 23.5536 121.545 24.5888 121.724 25.5687H121.764C121.928 24.761 122.2 23.7319 122.582 22.4876L123.99 17.8751H125.786L127.135 22.3892C127.461 23.49 127.726 24.5499 127.93 25.5708H127.991C128.14 24.5765 128.365 23.5167 128.664 22.3892L129.867 17.8751H132.032V17.873Z" fill="white"/>
<path d="M143.466 27.5375H141.261V22.0025C141.261 20.2969 140.596 19.4441 139.263 19.4441C138.608 19.4441 138.08 19.6778 137.67 20.1473C137.264 20.6167 137.058 21.1702 137.058 21.8037V27.5355H134.853V20.6352C134.853 19.7865 134.826 18.866 134.773 17.8697H136.711L136.814 19.3806H136.875C137.132 18.9111 137.515 18.5237 138.017 18.2141C138.615 17.8533 139.284 17.6709 140.016 17.6709C140.941 17.6709 141.711 17.962 142.323 18.5462C143.085 19.2617 143.466 20.3297 143.466 21.7484V27.5375Z" fill="white"/>
<path d="M149.538 27.5373H147.336V13.4395H149.538V27.5373Z" fill="white"/>
<path d="M162.517 22.6264C162.517 24.1127 162.082 25.3304 161.211 26.2857C160.298 27.2676 159.086 27.7576 157.578 27.7576C156.12 27.7576 154.961 27.2881 154.098 26.3451C153.236 25.4042 152.805 24.2172 152.805 22.7863C152.805 21.2898 153.249 20.0619 154.141 19.1086C155.032 18.1554 156.232 17.6777 157.74 17.6777C159.198 17.6777 160.365 18.1472 161.253 19.0881C162.094 20.0024 162.517 21.1832 162.517 22.6264ZM160.229 22.6961C160.229 21.8044 160.031 21.0397 159.637 20.4022C159.177 19.6314 158.516 19.246 157.662 19.246C156.774 19.246 156.101 19.6314 155.64 20.4022C155.245 21.0397 155.049 21.8167 155.049 22.7351C155.049 23.6268 155.247 24.3915 155.64 25.029C156.118 25.7998 156.783 26.1852 157.641 26.1852C158.483 26.1852 159.141 25.7937 159.616 25.0085C160.027 24.3587 160.229 23.5879 160.229 22.6961Z" fill="white"/>
<path d="M173.196 27.5382H171.216L171.052 26.4251H170.991C170.314 27.3127 169.348 27.7576 168.094 27.7576C167.158 27.7576 166.401 27.4644 165.831 26.8822C165.313 26.3533 165.055 25.6953 165.055 24.9142C165.055 23.7334 165.56 22.8335 166.576 22.2103C167.59 21.5871 169.016 21.2816 170.852 21.296V21.1156C170.852 19.8425 170.167 19.207 168.793 19.207C167.815 19.207 166.952 19.4469 166.208 19.9225L165.759 18.5121C166.681 17.9565 167.819 17.6777 169.161 17.6777C171.753 17.6777 173.053 19.0102 173.053 21.6752V25.234C173.053 26.1996 173.101 26.9683 173.196 27.5382ZM170.907 24.2172V22.7269C168.475 22.6859 167.259 23.3357 167.259 24.6744C167.259 25.1787 167.398 25.5559 167.682 25.808C167.966 26.0602 168.328 26.1852 168.759 26.1852C169.243 26.1852 169.695 26.0356 170.108 25.7383C170.522 25.439 170.777 25.0598 170.871 24.5944C170.894 24.4899 170.907 24.3628 170.907 24.2172Z" fill="white"/>
<path d="M185.717 27.5373H183.76L183.657 25.9855H183.596C182.971 27.1663 181.907 27.7567 180.411 27.7567C179.216 27.7567 178.221 27.2995 177.432 26.3852C176.643 25.4709 176.25 24.284 176.25 22.8264C176.25 21.2623 176.677 19.9954 177.535 19.0278C178.366 18.1258 179.384 17.6748 180.596 17.6748C181.928 17.6748 182.86 18.1114 183.39 18.9868H183.432V13.4395H185.639V24.9338C185.639 25.8748 185.664 26.7419 185.717 27.5373ZM183.432 23.4619V21.8506C183.432 21.5718 183.411 21.3463 183.371 21.1741C183.247 20.6575 182.98 20.2229 182.574 19.8724C182.163 19.5218 181.669 19.3455 181.099 19.3455C180.276 19.3455 179.633 19.6633 179.159 20.3008C178.69 20.9384 178.453 21.7522 178.453 22.7465C178.453 23.7018 178.678 24.4767 179.13 25.0732C179.607 25.7087 180.251 26.0265 181.057 26.0265C181.781 26.0265 182.359 25.762 182.799 25.2311C183.224 24.7411 183.432 24.1507 183.432 23.4619Z" fill="white"/>
<path d="M204.572 22.6264C204.572 24.1127 204.137 25.3304 203.266 26.2857C202.353 27.2676 201.145 27.7576 199.633 27.7576C198.179 27.7576 197.02 27.2881 196.153 26.3451C195.291 25.4042 194.859 24.2172 194.859 22.7863C194.859 21.2898 195.303 20.0619 196.195 19.1086C197.087 18.1554 198.286 17.6777 199.799 17.6777C201.252 17.6777 202.424 18.1472 203.308 19.0881C204.149 20.0024 204.572 21.1832 204.572 22.6264ZM202.287 22.6961C202.287 21.8044 202.09 21.0397 201.696 20.4022C201.231 19.6314 200.575 19.246 199.717 19.246C198.833 19.246 198.16 19.6314 197.695 20.4022C197.3 21.0397 197.104 21.8167 197.104 22.7351C197.104 23.6268 197.302 24.3915 197.695 25.029C198.173 25.7998 198.837 26.1852 199.696 26.1852C200.537 26.1852 201.2 25.7937 201.675 25.0085C202.081 24.3587 202.287 23.5879 202.287 22.6961Z" fill="white"/>
<path d="M216.432 27.5375H214.23V22.0025C214.23 20.2969 213.565 19.4441 212.229 19.4441C211.575 19.4441 211.047 19.6778 210.639 20.1473C210.231 20.6167 210.027 21.1702 210.027 21.8037V27.5355H207.82V20.6352C207.82 19.7865 207.795 18.866 207.742 17.8697H209.678L209.781 19.3806H209.842C210.1 18.9111 210.483 18.5237 210.984 18.2141C211.583 17.8533 212.25 17.6709 212.985 17.6709C213.908 17.6709 214.678 17.962 215.29 18.5462C216.054 19.2617 216.432 20.3297 216.432 21.7484V27.5375Z" fill="white"/>
<path d="M231.266 19.4837H228.839V24.1782C228.839 25.3713 229.27 25.9679 230.124 25.9679C230.519 25.9679 230.848 25.9351 231.106 25.8674L231.163 27.4972C230.728 27.6571 230.155 27.737 229.451 27.737C228.58 27.737 227.902 27.4787 227.412 26.9621C226.92 26.4455 226.676 25.5763 226.676 24.3566V19.4837H225.227V17.8745H226.676V16.1033L228.836 15.4678V17.8724H231.264V19.4837H231.266Z" fill="white"/>
<path d="M242.941 27.5373H240.734V22.0433C240.734 20.3111 240.069 19.4439 238.737 19.4439C237.715 19.4439 237.017 19.9462 236.634 20.9507C236.569 21.1618 236.531 21.4201 236.531 21.7235V27.5353H234.328V13.4395H236.531V19.2635H236.573C237.267 18.2037 238.262 17.6748 239.552 17.6748C240.465 17.6748 241.22 17.9659 241.819 18.5501C242.566 19.2779 242.941 20.3603 242.941 21.7912V27.5373Z" fill="white"/>
<path d="M254.973 22.2491C254.973 22.6345 254.943 22.9584 254.891 23.2229H248.279C248.308 24.1782 248.624 24.9059 249.236 25.4102C249.796 25.8612 250.517 26.0867 251.401 26.0867C252.379 26.0867 253.271 25.935 254.074 25.6296L254.419 27.122C253.479 27.5197 252.373 27.7185 251.091 27.7185C249.556 27.7185 248.346 27.2778 247.471 26.3963C246.592 25.5148 246.156 24.3319 246.156 22.8477C246.156 21.3902 246.562 20.1766 247.381 19.209C248.235 18.1758 249.39 17.6592 250.847 17.6592C252.274 17.6592 253.357 18.1758 254.089 19.209C254.68 20.029 254.973 21.0437 254.973 22.2491ZM252.869 21.6936C252.886 21.056 252.741 20.5066 252.442 20.0433C252.059 19.4468 251.476 19.1475 250.688 19.1475C249.968 19.1475 249.381 19.4386 248.933 20.0228C248.567 20.4882 248.35 21.0437 248.279 21.6936H252.869Z" fill="white"/>
<path d="M112.854 64.5841H108.076L105.459 56.5707H96.3628L93.87 64.5841H89.2188L98.2309 37.3027H103.797L112.854 64.5841ZM104.67 53.2087L102.304 46.0849C102.053 45.3572 101.584 43.6434 100.892 40.9456H100.808C100.532 42.1059 100.088 43.8197 99.4784 46.0849L97.1538 53.2087H104.67Z" fill="white"/>
<path d="M136.034 54.5057C136.034 57.8513 135.106 60.4958 133.251 62.4371C131.589 64.1653 129.525 65.0283 127.062 65.0283C124.403 65.0283 122.492 64.0976 121.329 62.2362H121.245V72.599H116.76V51.3876C116.76 49.2843 116.703 47.1257 116.594 44.9117H120.538L120.788 48.0297H120.873C122.368 45.6804 124.638 44.5078 127.684 44.5078C130.066 44.5078 132.054 45.4242 133.644 47.2589C135.239 49.0957 136.034 51.5106 136.034 54.5057ZM131.465 54.6656C131.465 52.7509 131.023 51.1724 130.135 49.9301C129.165 48.6345 127.863 47.9867 126.231 47.9867C125.124 47.9867 124.119 48.3475 123.22 49.0588C122.32 49.7763 121.731 50.7132 121.455 51.8735C121.316 52.4147 121.247 52.8575 121.247 53.206V56.486C121.247 57.9169 121.697 59.1243 122.598 60.1104C123.498 61.0964 124.668 61.5884 126.107 61.5884C127.796 61.5884 129.111 60.9529 130.051 59.686C130.993 58.4171 131.465 56.7443 131.465 54.6656Z" fill="white"/>
<path d="M159.25 54.5057C159.25 57.8513 158.323 60.4958 156.465 62.4371C154.805 64.1653 152.742 65.0283 150.278 65.0283C147.619 65.0283 145.709 64.0976 144.548 62.2362H144.464V72.599H139.979V51.3876C139.979 49.2843 139.922 47.1257 139.812 44.9117H143.757L144.007 48.0297H144.091C145.585 45.6804 147.855 44.5078 150.903 44.5078C153.282 44.5078 155.27 45.4242 156.865 47.2589C158.453 49.0957 159.25 51.5106 159.25 54.5057ZM154.681 54.6656C154.681 52.7509 154.237 51.1724 153.35 49.9301C152.38 48.6345 151.082 47.9867 149.447 47.9867C148.339 47.9867 147.335 48.3475 146.435 49.0588C145.534 49.7763 144.948 50.7132 144.672 51.8735C144.535 52.4147 144.464 52.8575 144.464 53.206V56.486C144.464 57.9169 144.914 59.1243 145.81 60.1104C146.71 61.0944 147.88 61.5884 149.323 61.5884C151.012 61.5884 152.327 60.9529 153.268 59.686C154.21 58.4171 154.681 56.7443 154.681 54.6656Z" fill="white"/>
<path d="M185.212 56.9329C185.212 59.2535 184.385 61.1415 182.725 62.5991C180.901 64.1919 178.362 64.9874 175.099 64.9874C172.087 64.9874 169.672 64.4216 167.844 63.2879L168.883 59.645C170.852 60.8053 173.012 61.3875 175.366 61.3875C177.056 61.3875 178.371 61.0144 179.315 60.2723C180.255 59.5302 180.725 58.534 180.725 57.2917C180.725 56.1847 180.337 55.2519 179.561 54.4954C178.789 53.739 177.5 53.0359 175.699 52.386C170.797 50.6045 168.349 47.9949 168.349 44.5632C168.349 42.3205 169.207 40.4816 170.926 39.0507C172.638 37.6178 174.923 36.9023 177.779 36.9023C180.327 36.9023 182.443 37.3349 184.132 38.1979L183.011 41.7608C181.433 40.9244 179.65 40.5062 177.653 40.5062C176.075 40.5062 174.843 40.8855 173.959 41.6399C173.212 42.3143 172.838 43.1364 172.838 44.1101C172.838 45.1884 173.265 46.0802 174.123 46.7813C174.87 47.4291 176.227 48.1302 178.196 48.8866C180.605 49.8317 182.374 50.9366 183.512 52.2035C184.646 53.4663 185.212 55.0469 185.212 56.9329Z" fill="white"/>
<path d="M200.036 48.1913H195.092V57.7423C195.092 60.1715 195.963 61.3851 197.709 61.3851C198.511 61.3851 199.176 61.3175 199.702 61.1822L199.826 64.5011C198.942 64.823 197.779 64.9849 196.338 64.9849C194.566 64.9849 193.182 64.4581 192.183 63.4064C191.188 62.3527 190.687 60.5856 190.687 58.1031V48.1872H187.742V44.9072H190.687V41.3054L195.092 40.0098V44.9072H200.036V48.1913Z" fill="white"/>
<path d="M222.343 54.5855C222.343 57.6093 221.455 60.0918 219.684 62.0332C217.826 64.0319 215.361 65.0282 212.287 65.0282C209.325 65.0282 206.967 64.0709 205.208 62.1562C203.45 60.2415 202.57 57.8245 202.57 54.9115C202.57 51.8631 203.475 49.3662 205.29 47.4249C207.102 45.4815 209.546 44.5098 212.62 44.5098C215.582 44.5098 217.965 45.4671 219.764 47.3839C221.484 49.2432 222.343 51.6438 222.343 54.5855ZM217.689 54.727C217.689 52.9127 217.292 51.3568 216.486 50.0591C215.546 48.4888 214.202 47.7057 212.46 47.7057C210.657 47.7057 209.287 48.4909 208.347 50.0591C207.541 51.3588 207.144 52.9394 207.144 54.809C207.144 56.6232 207.541 58.1792 208.347 59.4748C209.317 61.0451 210.672 61.8282 212.42 61.8282C214.132 61.8282 215.476 61.0287 216.446 59.4338C217.273 58.1115 217.689 56.5392 217.689 54.727Z" fill="white"/>
<path d="M236.917 48.7554C236.474 48.6755 236 48.6345 235.504 48.6345C233.926 48.6345 232.706 49.2146 231.848 50.377C231.101 51.402 230.726 52.6976 230.726 54.2617V64.5835H226.243L226.285 51.1068C226.285 48.8395 226.229 46.7751 226.117 44.9137H230.024L230.188 48.6775H230.312C230.785 47.384 231.532 46.3426 232.554 45.5615C233.554 44.8584 234.633 44.5078 235.796 44.5078C236.211 44.5078 236.585 44.5365 236.917 44.5878V48.7554Z" fill="white"/>
<path d="M256.979 53.8176C256.979 54.6007 256.927 55.2608 256.815 55.8H243.36C243.413 57.7434 244.063 59.2296 245.312 60.2546C246.446 61.171 247.912 61.6302 249.713 61.6302C251.705 61.6302 253.523 61.3206 255.157 60.6995L255.86 63.7335C253.95 64.5453 251.695 64.9491 249.093 64.9491C245.962 64.9491 243.505 64.0512 241.717 62.2575C239.933 60.4637 239.039 58.055 239.039 55.0333C239.039 52.0669 239.87 49.5967 241.534 47.6266C243.276 45.5233 245.63 44.4717 248.592 44.4717C251.501 44.4717 253.704 45.5233 255.199 47.6266C256.384 49.2974 256.979 51.3638 256.979 53.8176ZM252.702 52.684C252.732 51.3884 252.439 50.2691 251.831 49.324C251.055 48.1084 249.862 47.5016 248.257 47.5016C246.791 47.5016 245.598 48.094 244.687 49.283C243.941 50.2281 243.497 51.3617 243.36 52.6819H252.702V52.684Z" fill="white"/>
</svg>
