<svg width="16" height="12" viewBox="0 0 16 12" fill="none" xmlns="http://www.w3.org/2000/svg">
<path d="M13.8936 0.334049C14.6308 0.334049 15.2547 0.957875 15.2547 1.69512V9.86158C15.2547 10.6272 14.6308 11.2227 13.8936 11.2227H2.09759C1.33198 11.2227 0.736513 10.6272 0.736513 9.86158V1.69512C0.736513 0.957875 1.33198 0.334049 2.09759 0.334049H13.8936ZM13.8936 1.69512H2.09759V2.85771C2.72142 3.39647 3.74222 4.19043 5.89726 5.89178C6.37931 6.2604 7.31505 7.16778 7.99558 7.13943C8.64777 7.16778 9.58351 6.2604 10.0656 5.89178C12.2206 4.19043 13.2414 3.39647 13.8936 2.85771V1.69512ZM2.09759 9.86158H13.8936V4.61577C13.2414 5.12617 12.3057 5.86342 10.9162 6.96929C10.264 7.45134 9.18653 8.52886 7.99558 8.5005C6.77629 8.52886 5.67041 7.45134 5.04659 6.96929C3.65716 5.86342 2.72142 5.12617 2.09759 4.61577V9.86158Z" fill="#A4303F"/>
</svg>
