<svg width="17" height="13" viewBox="0 0 17 13" fill="none" xmlns="http://www.w3.org/2000/svg">
<path d="M16.6157 4.55139C16.7453 4.45417 16.9398 4.55139 16.9398 4.71343V11.3244C16.9398 12.1993 16.2268 12.8799 15.3843 12.8799H1.90313C1.02815 12.8799 0.347612 12.1993 0.347612 11.3244V4.71343C0.347612 4.55139 0.509645 4.45417 0.639271 4.55139C1.38462 5.13471 2.32441 5.84766 5.62988 8.24574C6.31042 8.73184 7.47706 9.80126 8.64369 9.80126C9.77792 9.80126 10.977 8.73184 11.6251 8.24574C14.9306 5.84766 15.8704 5.13471 16.6157 4.55139ZM8.64369 8.73184C7.86594 8.76425 6.79652 7.79205 6.24561 7.40317C1.93553 4.29214 1.61147 4.00048 0.639271 3.22273C0.444832 3.0931 0.347612 2.86625 0.347612 2.607V1.99128C0.347612 1.14871 1.02815 0.43576 1.90313 0.43576H15.3843C16.2268 0.43576 16.9398 1.14871 16.9398 1.99128V2.607C16.9398 2.86625 16.8101 3.0931 16.6157 3.22273C15.6435 4.00048 15.3194 4.29214 11.0094 7.40317C10.4585 7.79205 9.38905 8.76425 8.64369 8.73184Z" fill="white"/>
</svg>
