<svg width="47" height="48" viewBox="0 0 47 48" fill="none" xmlns="http://www.w3.org/2000/svg">
<rect x="0.289062" y="0.646484" width="46.6655" height="46.6655" rx="23.3327" fill="white"/>
<path d="M29.0791 17.5626C29.869 17.5626 30.5374 18.231 30.5374 19.0209V29.7151C30.5374 30.5354 29.869 31.1734 29.0791 31.1734H24.8865V26.5554H26.6486L26.9828 24.368H24.8865V22.9705C24.8865 22.3628 25.1903 21.7856 26.1321 21.7856H27.0739V19.9323C27.0739 19.9323 26.2232 19.7804 25.3726 19.7804C23.6712 19.7804 22.5471 20.8438 22.5471 22.7274V24.368H20.6331V26.5554H22.5471V31.1734H18.3849C17.5646 31.1734 16.9266 30.5354 16.9266 29.7151V19.0209C16.9266 18.231 17.5646 17.5626 18.3849 17.5626H29.0791Z" fill="#1B1F2E"/>
</svg>
