<svg width="284" height="82" viewBox="0 0 284 82" fill="none" xmlns="http://www.w3.org/2000/svg">
<path d="M273.477 82H10.5184C4.73589 82 0 77.3849 0 71.75V10.25C0 4.61507 4.73589 1.90735e-06 10.5184 1.90735e-06H273.477C279.26 1.90735e-06 283.996 4.61507 283.996 10.25V71.75C283.996 77.3849 279.26 82 273.477 82Z" fill="black"/>
<path d="M273.477 1.64256C278.347 1.64256 282.31 5.50425 282.31 10.25V71.75C282.31 76.4958 278.347 80.3574 273.477 80.3574H10.5184C5.64836 80.3574 1.68557 76.4958 1.68557 71.75V10.25C1.68557 5.50425 5.64836 1.64256 10.5184 1.64256H273.477ZM273.477 1.90735e-06H10.5184C4.73589 1.90735e-06 0 4.61507 0 10.25V71.75C0 77.3849 4.73589 82 10.5184 82H273.477C279.26 82 283.996 77.3849 283.996 71.75V10.25C283.996 4.61507 279.26 1.90735e-06 273.477 1.90735e-06Z" fill="#A6A6A6"/>
<path d="M21.9521 15.4536C21.3342 16.084 20.9766 17.0654 20.9766 18.3364V63.6722C20.9766 64.9432 21.3342 65.9246 21.9521 66.555L22.1047 66.6934L48.1744 41.299V40.6994L22.1047 15.305L21.9521 15.4536Z" fill="url(#paint0_linear_291_1079)"/>
<path d="M56.86 49.7695L48.1797 41.3005V40.7008L56.8705 32.2318L57.0651 32.342L67.3573 38.0487C70.2945 39.6682 70.2945 42.3332 67.3573 43.9629L57.0651 49.6593L56.86 49.7695Z" fill="url(#paint1_linear_291_1079)"/>
<path d="M57.0608 49.6586L48.1754 40.9999L21.9531 66.5557C22.9287 67.5551 24.5196 67.6755 26.3288 66.6761L57.0608 49.6586Z" fill="url(#paint2_linear_291_1079)"/>
<path d="M57.0608 32.3403L26.3288 15.3228C24.5196 14.3337 22.9287 14.4541 21.9531 15.4535L48.1754 40.999L57.0608 32.3403Z" fill="url(#paint3_linear_291_1079)"/>
<path d="M99.751 20.9987C99.751 22.7104 99.225 24.0814 98.189 25.1038C96.9978 26.3159 95.4463 26.9258 93.5451 26.9258C91.7281 26.9258 90.1766 26.3056 88.9039 25.0833C87.6285 23.8431 86.9922 22.321 86.9922 20.499C86.9922 18.6771 87.6285 17.155 88.9039 15.925C90.1766 14.6924 91.7281 14.0723 93.5451 14.0723C94.4497 14.0723 95.3122 14.2542 96.1353 14.5925C96.9557 14.9333 97.6236 15.3945 98.1075 15.9634L97.0083 17.0448C96.1642 16.0736 95.0151 15.5944 93.5451 15.5944C92.2198 15.5944 91.0707 16.0454 90.0951 16.9551C89.13 17.8673 88.6462 19.0486 88.6462 20.499C88.6462 21.9494 89.13 23.1409 90.0951 24.0532C91.0707 24.9526 92.2198 25.4139 93.5451 25.4139C94.952 25.4139 96.1353 24.9526 97.0688 24.0429C97.6841 23.4408 98.0338 22.6105 98.1259 21.5496H93.5451V20.0685H99.6563C99.7299 20.3888 99.751 20.6989 99.751 20.9987Z" fill="white" stroke="white" stroke-width="0.252308" stroke-miterlimit="10"/>
<path d="M109.436 15.8638H103.695V19.7588H108.87V21.2399H103.695V25.1349H109.436V26.6442H102.07V14.3545H109.436V15.8638Z" fill="white" stroke="white" stroke-width="0.252308" stroke-miterlimit="10"/>
<path d="M116.287 26.6442H114.662V15.8638H111.141V14.3545H119.81V15.8638H116.287V26.6442Z" fill="white" stroke="white" stroke-width="0.252308" stroke-miterlimit="10"/>
<path d="M126.086 26.6442V14.3545H127.708V26.6442H126.086Z" fill="white" stroke="white" stroke-width="0.252308" stroke-miterlimit="10"/>
<path d="M134.904 26.6442H133.292V15.8638H129.758V14.3545H138.438V15.8638H134.904V26.6442Z" fill="white" stroke="white" stroke-width="0.252308" stroke-miterlimit="10"/>
<path d="M154.842 25.0628C153.598 26.3056 152.057 26.9258 150.219 26.9258C148.37 26.9258 146.829 26.3056 145.586 25.0628C144.345 23.8226 143.727 22.3005 143.727 20.499C143.727 18.6976 144.345 17.1755 145.586 15.9352C146.829 14.6924 148.37 14.0723 150.219 14.0723C152.047 14.0723 153.588 14.6924 154.831 15.9455C156.083 17.196 156.701 18.7078 156.701 20.499C156.701 22.3005 156.083 23.8226 154.842 25.0628ZM146.787 24.0327C147.724 24.9526 148.862 25.4139 150.219 25.4139C151.565 25.4139 152.715 24.9526 153.64 24.0327C154.574 23.1128 155.047 21.9315 155.047 20.499C155.047 19.0666 154.574 17.8853 153.64 16.9653C152.715 16.0454 151.565 15.5841 150.219 15.5841C148.862 15.5841 147.724 16.0454 146.787 16.9653C145.854 17.8853 145.381 19.0666 145.381 20.499C145.381 21.9315 145.854 23.1128 146.787 24.0327Z" fill="white" stroke="white" stroke-width="0.252308" stroke-miterlimit="10"/>
<path d="M158.992 26.6442V14.3545H160.964L167.097 23.9126H167.168L167.097 21.55V14.3545H168.719V26.6442H167.026L160.604 16.6146H160.533L160.604 18.9875V26.6442H158.992Z" fill="white" stroke="white" stroke-width="0.252308" stroke-miterlimit="10"/>
<path d="M143.335 44.5922C138.394 44.5922 134.358 48.2565 134.358 53.3123C134.358 58.3272 138.394 62.03 143.335 62.03C148.286 62.03 152.323 58.3272 152.323 53.3123C152.323 48.2565 148.286 44.5922 143.335 44.5922ZM143.335 58.5962C140.624 58.5962 138.291 56.4155 138.291 53.3123C138.291 50.1682 140.624 48.0259 143.335 48.0259C146.046 48.0259 148.389 50.1682 148.389 53.3123C148.389 56.4155 146.046 58.5962 143.335 58.5962ZM123.747 44.5922C118.796 44.5922 114.77 48.2565 114.77 53.3123C114.77 58.3272 118.796 62.03 123.747 62.03C128.696 62.03 132.725 58.3272 132.725 53.3123C132.725 48.2565 128.696 44.5922 123.747 44.5922ZM123.747 58.5962C121.033 58.5962 118.693 56.4155 118.693 53.3123C118.693 50.1682 121.033 48.0259 123.747 48.0259C126.458 48.0259 128.791 50.1682 128.791 53.3123C128.791 56.4155 126.458 58.5962 123.747 58.5962ZM100.438 47.2648V50.9702H109.518C109.253 53.0407 108.543 54.5628 107.454 55.6237C106.129 56.905 104.065 58.3271 100.438 58.3271C94.8505 58.3271 90.4749 53.9325 90.4749 48.4872C90.4749 43.0418 94.8505 38.6472 100.438 38.6472C103.46 38.6472 105.658 39.7977 107.281 41.2891L109.96 38.6779C107.691 36.5664 104.672 34.9443 100.438 34.9443C92.7758 34.9443 86.3359 41.02 86.3359 48.4872C86.3359 55.9543 92.7758 62.03 100.438 62.03C104.58 62.03 107.691 60.7077 110.136 58.2272C112.642 55.7852 113.423 52.3514 113.423 49.5788C113.423 48.7178 113.35 47.926 113.218 47.2648H100.438ZM195.751 50.1374C195.012 48.1873 192.732 44.5922 188.088 44.5922C183.486 44.5922 179.655 48.1258 179.655 53.3123C179.655 58.1965 183.447 62.03 188.53 62.03C192.64 62.03 195.012 59.5879 195.987 58.1657L192.937 56.1849C191.919 57.6353 190.533 58.5962 188.53 58.5962C186.539 58.5962 185.111 57.707 184.196 55.9543L196.163 51.1291L195.751 50.1374ZM183.549 53.0407C183.447 49.6787 186.229 47.9567 188.222 47.9567C189.784 47.9567 191.109 48.7178 191.551 49.8068L183.549 53.0407ZM173.822 61.4995H177.756V35.8745H173.822V61.4995ZM167.38 46.5345H167.248C166.365 45.5147 164.679 44.5922 162.544 44.5922C158.063 44.5922 153.966 48.4257 153.966 53.3405C153.966 58.2272 158.063 62.03 162.544 62.03C164.679 62.03 166.365 61.0998 167.248 60.0492H167.38V61.2997C167.38 64.6335 165.552 66.4246 162.605 66.4246C160.201 66.4246 158.71 64.7334 158.095 63.3112L154.674 64.7026C155.66 67.014 158.271 69.8584 162.605 69.8584C167.217 69.8584 171.109 67.2139 171.109 60.7795V45.1226H167.38V46.5345ZM162.881 58.5962C160.17 58.5962 157.9 56.3848 157.9 53.3405C157.9 50.2681 160.17 48.0259 162.881 48.0259C165.552 48.0259 167.659 50.2681 167.659 53.3405C167.659 56.3848 165.552 58.5962 162.881 58.5962ZM214.168 35.8745H204.76V61.4995H208.683V51.7902H214.168C218.525 51.7902 222.798 48.7178 222.798 43.8311C222.798 38.947 218.515 35.8745 214.168 35.8745ZM214.271 48.2258H208.683V39.439H214.271C217.2 39.439 218.873 41.8093 218.873 43.8311C218.873 45.8145 217.2 48.2258 214.271 48.2258ZM238.523 44.5435C235.689 44.5435 232.741 45.7632 231.529 48.4667L235.01 49.8888C235.76 48.4667 237.138 48.0054 238.594 48.0054C240.63 48.0054 242.694 49.197 242.726 51.3008V51.5698C242.016 51.1701 240.496 50.5782 238.626 50.5782C234.876 50.5782 231.055 52.5897 231.055 56.3438C231.055 59.7775 234.127 61.989 237.579 61.989C240.22 61.989 241.676 60.8282 242.591 59.4777H242.726V61.4585H246.515V51.6288C246.515 47.0855 243.033 44.5435 238.523 44.5435ZM238.05 58.586C236.767 58.586 234.979 57.9658 234.979 56.4155C234.979 54.4322 237.209 53.6711 239.139 53.6711C240.866 53.6711 241.676 54.0427 242.726 54.5321C242.418 56.905 240.322 58.586 238.05 58.586ZM260.32 45.1047L255.81 56.2131H255.676L251.014 45.1047H246.783L253.788 60.6283L249.791 69.2665H253.891L264.685 45.1047H260.32ZM224.955 61.4995H228.889V35.8745H224.955V61.4995Z" fill="white"/>
<defs>
<linearGradient id="paint0_linear_291_1079" x1="45.8597" y1="64.1443" x2="11.4673" y2="28.8514" gradientUnits="userSpaceOnUse">
<stop stop-color="#00A0FF"/>
<stop offset="0.0066" stop-color="#00A1FF"/>
<stop offset="0.2601" stop-color="#00BEFF"/>
<stop offset="0.5122" stop-color="#00D2FF"/>
<stop offset="0.7604" stop-color="#00DFFF"/>
<stop offset="1" stop-color="#00E3FF"/>
</linearGradient>
<linearGradient id="paint1_linear_291_1079" x1="71.1821" y1="40.9978" x2="20.2797" y2="40.9978" gradientUnits="userSpaceOnUse">
<stop stop-color="#FFE000"/>
<stop offset="0.4087" stop-color="#FFBD00"/>
<stop offset="0.7754" stop-color="#FFA500"/>
<stop offset="1" stop-color="#FF9C00"/>
</linearGradient>
<linearGradient id="paint2_linear_291_1079" x1="52.2292" y1="36.2929" x2="5.59024" y2="-11.5671" gradientUnits="userSpaceOnUse">
<stop stop-color="#FF3A44"/>
<stop offset="1" stop-color="#C31162"/>
</linearGradient>
<linearGradient id="paint3_linear_291_1079" x1="15.3524" y1="81.6378" x2="36.1788" y2="60.2664" gradientUnits="userSpaceOnUse">
<stop stop-color="#32A071"/>
<stop offset="0.0685" stop-color="#2DA771"/>
<stop offset="0.4762" stop-color="#15CF74"/>
<stop offset="0.8009" stop-color="#06E775"/>
<stop offset="1" stop-color="#00F076"/>
</linearGradient>
</defs>
</svg>
