<svg width="32" height="32" viewBox="0 0 32 32" fill="none" xmlns="http://www.w3.org/2000/svg">
<path d="M29.719 16.0811C29.719 14.9716 29.6271 14.1619 29.4283 13.3223H16.5V18.3301H24.0886C23.9357 19.5747 23.1095 21.4489 21.2735 22.7083L21.2478 22.876L25.3354 25.9793L25.6186 26.007C28.2196 23.653 29.719 20.1894 29.719 16.0811Z" fill="#4285F4"/>
<path d="M16.5041 29.2758C20.2219 29.2758 23.343 28.0762 25.6228 26.0071L21.2776 22.7084C20.1149 23.5031 18.5543 24.0579 16.5041 24.0579C12.8628 24.0579 9.77231 21.7039 8.67062 18.4502L8.50914 18.4636L4.25871 21.6873L4.20312 21.8388C6.46746 26.247 11.1186 29.2758 16.5041 29.2758Z" fill="#34A853"/>
<path d="M8.67063 18.4513C8.37994 17.6116 8.2117 16.7119 8.2117 15.7824C8.2117 14.8527 8.37994 13.9531 8.65533 13.1135L8.64763 12.9346L4.34393 9.65918L4.20312 9.72482C3.26987 11.5541 2.73438 13.6083 2.73438 15.7824C2.73438 17.9565 3.26987 20.0105 4.20312 21.8398L8.67063 18.4513Z" fill="#FBBC05"/>
<path d="M16.5042 7.50491C19.0898 7.50491 20.834 8.59945 21.8285 9.51414L25.7146 5.79566C23.3279 3.62156 20.222 2.28711 16.5042 2.28711C11.1186 2.28711 6.46747 5.31583 4.20312 9.72397L8.65535 13.1126C9.77234 9.85897 12.8629 7.50491 16.5042 7.50491Z" fill="#EB4335"/>
</svg>
