<svg width="48" height="48" viewBox="0 0 48 48" fill="none" xmlns="http://www.w3.org/2000/svg">
<rect x="0.359375" y="0.646484" width="46.6655" height="46.6655" rx="23.3327" fill="white"/>
<path d="M23.8023 20.8742C25.7163 20.8742 27.2961 22.454 27.2961 24.368C27.2961 26.3124 25.7163 27.8618 23.8023 27.8618C21.8579 27.8618 20.3085 26.3124 20.3085 24.368C20.3085 22.454 21.8579 20.8742 23.8023 20.8742ZM23.8023 26.6466C25.0479 26.6466 26.0505 25.644 26.0505 24.368C26.0505 23.1224 25.0479 22.1198 23.8023 22.1198C22.5263 22.1198 21.5237 23.1224 21.5237 24.368C21.5237 25.644 22.5567 26.6466 23.8023 26.6466ZM28.2379 20.7526C28.2379 21.2083 27.8734 21.5729 27.4177 21.5729C26.9619 21.5729 26.5974 21.2083 26.5974 20.7526C26.5974 20.2969 26.9619 19.9323 27.4177 19.9323C27.8734 19.9323 28.2379 20.2969 28.2379 20.7526ZM30.5469 21.5729C30.6077 22.697 30.6077 26.0693 30.5469 27.1934C30.4862 28.2872 30.2431 29.229 29.4532 30.0493C28.6633 30.8392 27.6911 31.0822 26.5974 31.143C25.4733 31.2038 22.101 31.2038 20.9769 31.143C19.8831 31.0822 18.9413 30.8392 18.121 30.0493C17.3311 29.229 17.0881 28.2872 17.0273 27.1934C16.9665 26.0693 16.9665 22.697 17.0273 21.5729C17.0881 20.4792 17.3311 19.507 18.121 18.7171C18.9413 17.9272 19.8831 17.6841 20.9769 17.6234C22.101 17.5626 25.4733 17.5626 26.5974 17.6234C27.6911 17.6841 28.6633 17.9272 29.4532 18.7171C30.2431 19.507 30.4862 20.4792 30.5469 21.5729ZM29.0886 28.3783C29.4532 27.4972 29.362 25.3706 29.362 24.368C29.362 23.3958 29.4532 21.2691 29.0886 20.3577C28.8456 19.7804 28.3899 19.2943 27.8126 19.0817C26.9012 18.7171 24.7745 18.8082 23.8023 18.8082C22.7997 18.8082 20.673 18.7171 19.792 19.0817C19.1844 19.3247 18.7286 19.7804 18.4856 20.3577C18.121 21.2691 18.2122 23.3958 18.2122 24.368C18.2122 25.3706 18.121 27.4972 18.4856 28.3783C18.7286 28.9859 19.1844 29.4416 19.792 29.6847C20.673 30.0493 22.7997 29.9581 23.8023 29.9581C24.7745 29.9581 26.9012 30.0493 27.8126 29.6847C28.3899 29.4416 28.876 28.9859 29.0886 28.3783Z" fill="#1B1F2E"/>
</svg>
