<svg width="47" height="48" viewBox="0 0 47 48" fill="none" xmlns="http://www.w3.org/2000/svg">
<rect x="0.328125" y="0.646484" width="46.6655" height="46.6655" rx="23.3327" fill="white"/>
<path d="M28.6464 28.4882H26.5452V25.1969C26.5452 24.4122 26.531 23.4017 25.452 23.4017C24.3577 23.4017 24.1899 24.2574 24.1899 25.139V28.4882H22.0886V21.72H24.1059V22.6454H24.1343C24.5456 21.9434 25.3114 21.5227 26.1245 21.5522C28.2541 21.5522 28.6476 22.9527 28.6476 24.7762L28.6464 28.487V28.4882ZM19.7179 20.7947C19.3951 20.7931 19.086 20.6643 18.8576 20.4362C18.6293 20.208 18.5002 19.899 18.4983 19.5763C18.4983 18.9074 19.049 18.3566 19.7179 18.3566C20.3868 18.3566 20.9364 18.9074 20.9375 19.5763C20.9375 20.2452 20.3868 20.7947 19.7179 20.7947ZM20.7685 28.4882H18.6649V21.72H20.7685V28.4882ZM29.6923 16.4043H17.6084C17.3344 16.4027 17.0708 16.5093 16.875 16.701C16.6792 16.8926 16.5669 17.1538 16.5625 17.4278V29.5625C16.5669 29.8364 16.6792 30.0976 16.875 30.2892C17.0708 30.4809 17.3344 30.5875 17.6084 30.5859H29.6935C29.9681 30.5881 30.2326 30.4819 30.4293 30.2902C30.626 30.0986 30.7392 29.8371 30.7441 29.5625V17.4266C30.7392 17.1522 30.6259 16.8909 30.4291 16.6996C30.2323 16.5084 29.9679 16.4026 29.6935 16.4055L29.6923 16.4043Z" fill="#1B1F2E"/>
</svg>
