<svg width="12" height="16" viewBox="0 0 12 16" fill="none" xmlns="http://www.w3.org/2000/svg">
<path d="M5.43401 14.8447C1.29408 8.88998 0.556826 8.26615 0.556826 6.0544C0.556826 3.0487 2.96706 0.610101 6.00113 0.610101C9.00684 0.610101 11.4454 3.0487 11.4454 6.0544C11.4454 8.26615 10.6798 8.88998 6.53989 14.8447C6.28469 15.2417 5.68922 15.2417 5.43401 14.8447ZM6.00113 8.32286C7.24878 8.32286 8.26959 7.33041 8.26959 6.0544C8.26959 4.80675 7.24878 3.78594 6.00113 3.78594C4.72512 3.78594 3.73267 4.80675 3.73267 6.0544C3.73267 7.33041 4.72512 8.32286 6.00113 8.32286Z" fill="#A4303F"/>
</svg>
