<svg width="16" height="16" viewBox="0 0 16 16" fill="none" xmlns="http://www.w3.org/2000/svg">
<path d="M14.8293 10.8339C15.0562 10.9473 15.2263 11.2025 15.2263 11.486C15.2263 11.5144 15.2263 11.5711 15.2263 11.6278L14.5458 14.5768C14.4607 14.8887 14.2055 15.0872 13.8936 15.0872C6.60615 15.0872 0.736513 9.21759 0.736513 1.93016C0.736513 1.61825 0.935003 1.36305 1.24692 1.27798L4.19591 0.597441C4.25263 0.597441 4.30934 0.569085 4.33769 0.569085C4.62125 0.569085 4.87645 0.73922 4.98988 0.994421L6.35095 4.17027C6.37931 4.25533 6.40766 4.3404 6.40766 4.42547C6.40766 4.65231 6.29424 4.8508 6.15246 4.96423L4.42276 6.38201C5.47192 8.59376 7.22998 10.3518 9.44173 11.401L10.8595 9.67128C10.9729 9.5295 11.1714 9.41608 11.3699 9.41608C11.4833 9.41608 11.5684 9.44443 11.6535 9.47279L14.8293 10.8339Z" fill="#A4303F"/>
</svg>
