<svg width="38" height="38" viewBox="0 0 38 38" fill="none" xmlns="http://www.w3.org/2000/svg">
<path d="M14.1254 32.8628C10.3294 32.8628 6.79086 31.7588 3.8125 29.8537C6.34123 30.0174 10.8039 29.6255 13.5796 26.9779C9.40397 26.7863 7.52084 23.5837 7.27521 22.2151C7.63 22.352 9.3221 22.5162 10.2773 22.133C5.47395 20.9286 4.73708 16.7133 4.90083 15.4269C5.80146 16.0564 7.3298 16.2754 7.93021 16.2207C3.45436 13.0181 5.06458 8.20065 5.85604 7.16051C9.06807 11.6105 13.8819 14.1098 19.8373 14.2488C19.725 13.7564 19.6657 13.2436 19.6657 12.717C19.6657 8.93774 22.7204 5.87402 26.4886 5.87402C28.4575 5.87402 30.2315 6.71039 31.4769 8.04819C32.7925 7.7399 34.7726 7.01819 35.7405 6.39409C35.2526 8.1459 33.7336 9.60727 32.8148 10.1489C32.8073 10.1304 32.8224 10.1673 32.8148 10.1489C33.6219 10.0268 35.8057 9.60713 36.6685 9.02181C36.2418 10.006 34.6314 11.6423 33.3098 12.5584C33.5557 23.4027 25.2586 32.8628 14.1254 32.8628Z" fill="#47ACDF"/>
</svg>
