<svg width="47" height="48" viewBox="0 0 47 48" fill="none" xmlns="http://www.w3.org/2000/svg">
<rect x="0.257812" y="0.646484" width="46.6655" height="46.6655" rx="23.3327" fill="white"/>
<path d="M29.8612 21.2083C29.8612 21.3603 29.8612 21.4818 29.8612 21.6337C29.8612 25.8567 26.6711 30.6873 20.8076 30.6873C18.9847 30.6873 17.3137 30.1708 15.9162 29.2594C16.1592 29.2897 16.4023 29.3201 16.6757 29.3201C18.1644 29.3201 19.5316 28.8036 20.6253 27.953C19.2277 27.9226 18.0429 27.0112 17.6479 25.7351C17.8606 25.7655 18.0429 25.7959 18.2555 25.7959C18.529 25.7959 18.8328 25.7351 19.0758 25.6744C17.6175 25.3706 16.5238 24.0946 16.5238 22.5451V22.5147C16.9492 22.7578 17.4656 22.8793 17.9821 22.9097C17.1011 22.3325 16.5542 21.3603 16.5542 20.2665C16.5542 19.6589 16.7061 19.112 16.9795 18.6563C18.5594 20.5703 20.9291 21.8464 23.5723 21.9983C23.5115 21.7552 23.4811 21.5122 23.4811 21.2691C23.4811 19.507 24.909 18.0791 26.6711 18.0791C27.5826 18.0791 28.4029 18.4437 29.0105 19.0817C29.7092 18.9298 30.408 18.6563 31.0156 18.2918C30.7726 19.0513 30.2865 19.6589 29.6181 20.0539C30.2561 19.9931 30.8941 19.8108 31.441 19.5678C31.0156 20.2058 30.4688 20.7526 29.8612 21.2083Z" fill="#1B1F2E"/>
</svg>
